<?xml version="1.0" encoding="UTF-8"?>
<svg id="Layer_1" data-name="Layer 1" xmlns="http://www.w3.org/2000/svg" viewBox="0 0 486.4 482.18">
  <defs>
    <style>
      .cls-1 {
        fill: #5865f2;
      }
    </style>
  </defs>
  <path class="cls-1" d="M67.46,197.28l63.85,27.1c7.23-14.46,14.96-28.71,23.19-42.76,8.23-14.05,16.97-27.51,26.2-40.35l-47.58-9.64-65.65,65.65Zm92.76,48.79l80.11,80.11c22.89-10.44,44.37-22.29,64.45-35.54,20.08-13.25,36.34-26.1,48.79-38.55,32.52-32.52,56.42-65.85,71.68-99.98,15.26-34.13,23.49-72.68,24.69-115.64-42.96,1.2-81.51,9.44-115.64,24.69-34.13,15.26-67.46,39.15-99.98,71.68-12.45,12.45-25.3,28.71-38.55,48.79-13.25,20.08-25.1,41.56-35.54,64.45Zm137.93-57.82c-8.03-8.03-12.05-17.97-12.05-29.81s4.02-21.78,12.05-29.81c8.03-8.03,17.97-12.05,29.81-12.05s21.78,4.02,29.81,12.05c8.03,8.03,12.05,17.97,12.05,29.81s-4.02,21.78-12.05,29.81c-8.03,8.03-17.97,12.05-29.81,12.05s-21.78-4.02-29.81-12.05Zm-9.03,230.69l65.65-65.65-9.64-47.58c-12.85,9.24-26.3,17.97-40.35,26.2-14.05,8.23-28.31,15.96-42.76,23.19l27.1,63.85ZM485.46,.93c3.61,54.61-3.21,104.4-20.48,149.37-17.27,44.97-45.78,87.34-85.53,127.09l-1.2,1.2-1.2,1.2,13.25,66.25c1.2,6.02,.9,11.85-.9,17.47-1.81,5.62-4.92,10.64-9.34,15.06l-103,103.6-51.2-119.26-102.39-102.39L4.22,209.33,107.81,106.33c4.42-4.42,9.44-7.53,15.06-9.34s11.44-2.11,17.47-.9l66.25,13.25c.4-.4,.8-.7,1.2-.9,.4-.2,.8-.5,1.2-.9,39.75-39.75,82.12-68.36,127.09-85.83C381.06,4.24,430.85-2.68,485.46,.93ZM44.57,333.41c14.05-14.05,31.22-21.18,51.5-21.38,20.28-.2,37.44,6.73,51.5,20.78,14.05,14.05,20.98,31.22,20.78,51.5s-7.33,37.44-21.38,51.5c-10.44,10.44-26.6,19.07-48.49,25.9-21.88,6.83-54.71,13.25-98.48,19.27,6.02-43.77,12.35-76.69,18.97-98.78,6.63-22.08,15.16-38.35,25.6-48.79Zm25.3,25.9c-5.62,6.02-10.64,15.46-15.06,28.31-4.42,12.85-8.23,29.31-11.44,49.39,20.08-3.21,36.54-7.03,49.39-11.44s22.29-9.44,28.31-15.06c7.63-6.83,11.54-15.36,11.75-25.6,.2-10.24-3.31-19.17-10.54-26.8-7.63-7.23-16.56-10.74-26.8-10.54-10.24,.2-18.77,4.12-25.6,11.75Z"/>
</svg>