<?xml version="1.0" encoding="UTF-8"?>
<svg id="Layer_1" data-name="Layer 1" xmlns="http://www.w3.org/2000/svg" viewBox="0 0 788.31 572.42">
  <defs>
    <style>
      .cls-1 {
        fill: #5865f2;
      }
    </style>
  </defs>
  <path class="cls-1" d="M188.12,572.42c-51.36,0-95.55-18.51-132.58-55.54C18.51,479.85,0,435.66,0,384.3c0-46.58,14.78-87.64,44.34-123.17,29.56-35.53,67.63-56.88,114.22-64.05,11.94-57.93,40.01-105.26,84.21-141.99C286.96,18.36,338.02,0,395.95,0c67.48,0,124.07,24.34,169.76,73.01,45.69,48.67,68.53,107.05,68.53,175.13v21.5c43-1.19,79.43,12.69,109.29,41.66,29.86,28.96,44.79,65.54,44.79,109.74,0,41.21-14.93,76.74-44.79,106.6s-65.39,44.79-106.6,44.79h-215.89c-14.33,0-26.87-5.37-37.62-16.12-10.75-10.75-16.12-23.29-16.12-37.62v-231.12l-74.35,74.35-38.52-38.52,139.75-139.75,139.75,139.75-38.52,38.52-74.35-74.35v231.12h215.89c26.87,0,49.87-9.56,68.98-28.67,19.11-19.11,28.67-42.1,28.67-68.98s-9.56-49.87-28.67-68.98-42.1-28.67-68.98-28.67h-56.44v-75.25c0-53.15-18.07-98.84-54.2-137.06-36.13-38.22-80.77-57.33-133.92-57.33-53.15,0-97.94,19.11-134.37,57.33-36.43,38.22-54.64,83.91-54.64,137.06h-17.02c-37.03,0-68.38,12.99-94.06,38.97-25.68,25.98-38.52,58.08-38.52,96.3,0,37.03,13.14,68.83,39.42,95.4,26.28,26.58,57.93,39.86,94.96,39.86h125.41v53.75h-125.41Z"/>
</svg>