<?xml version="1.0" encoding="UTF-8"?>
<svg id="Layer_1" data-name="Layer 1" xmlns="http://www.w3.org/2000/svg" viewBox="0 0 686.78 722.92">
  <defs>
    <style>
      .cls-1 {
        fill: #5865f2;
      }
    </style>
  </defs>
  <path class="cls-1" d="M588.67,722.06c-3.44,0-6.6-.43-9.47-1.29s-5.74-2.73-8.61-5.59l-193.64-193.64v-65.41l43.89-43.89h65.41l193.64,193.64c2.87,2.87,4.73,5.74,5.59,8.61,.86,2.87,1.29,6.02,1.29,9.47,0,3.44-.43,6.6-1.29,9.47-.86,2.87-2.73,5.74-5.59,8.61l-73.15,73.15c-2.87,2.87-5.74,4.73-8.61,5.59s-6.02,1.29-9.47,1.29Zm0-61.1l37.01-37.01-172.12-172.12-37.01,37.01,172.12,172.12Zm-489.69,61.96c-3.44,0-6.74-.57-9.9-1.72-3.16-1.15-6.17-3.16-9.04-6.02L7.75,642.89c-2.87-2.87-4.88-5.88-6.02-9.04S0,627.39,0,623.95s.57-6.6,1.72-9.47c1.15-2.87,3.16-5.74,6.02-8.61l193.64-193.64h73.15l32.7-32.7L156.63,228.93h-49.06L0,121.35,85.2,36.15l107.58,107.58v49.06l150.61,150.61,111.88-111.88-57.66-57.66,48.19-48.19h-97.25l-15.49-15.49L443.22,0l15.49,15.49V112.74l48.19-48.19,145.45,145.45c8.61,8.61,15.35,18.5,20.22,29.69,4.88,11.19,7.32,23.09,7.32,35.72,0,10.9-1.72,21.66-5.16,32.27-3.44,10.61-8.89,20.51-16.35,29.69l-73.15-73.15-48.19,48.19-44.75-44.75-181.59,181.59v72.29l-193.64,193.64c-2.87,2.87-5.74,4.88-8.61,6.02-2.87,1.15-6.02,1.72-9.47,1.72Zm0-61.96l172.12-172.12-37.01-37.01L61.96,623.95l37.01,37.01Z"/>
</svg>